<svg id="Brush" xmlns="http://www.w3.org/2000/svg" xmlns:xlink="http://www.w3.org/1999/xlink" viewBox="0 0 240 235"><defs><radialGradient id="radial-gradient" cx="97.71" cy="81.62" r="143.79" gradientTransform="translate(-10.91 -10.93) scale(1.09 1.09)" gradientUnits="userSpaceOnUse"><stop offset="0" stop-color="#3a2a1d"/><stop offset="0.77" stop-color="#241405"/></radialGradient></defs><title>Artboard 1 copy 3</title><rect width="240" height="235" fill="url(#radial-gradient)"/><path d="M16.75,117A103.25,103.25,0,1,0,120,13.75,103.25,103.25,0,0,0,16.75,117Zm10.65,0A92.61,92.61,0,1,1,120,209.72,92.66,92.66,0,0,1,27.39,117Z" fill="#ff7618" fill-rule="evenodd"/><path d="M120,55.73a19.4,19.4,0,0,1,17.38,10.82,24.07,24.07,0,0,0-4.81,3.74,17.77,17.77,0,0,1-25.13,0,24.28,24.28,0,0,0-4.81-3.74A19.38,19.38,0,0,1,120,55.73ZM139.25,73a18.77,18.77,0,0,1,.12,2.13,22.59,22.59,0,0,0,22.57,22.56,18.74,18.74,0,0,1,2.13.12,18.32,18.32,0,0,1-1.84,2.16,24.15,24.15,0,0,0,0,34.15,18.37,18.37,0,0,1,1.84,2.17,18.74,18.74,0,0,1-2.13.12,22.58,22.58,0,0,0-22.56,22.55,18.77,18.77,0,0,1-.12,2.14,18.46,18.46,0,0,1-2.17-1.85,24.17,24.17,0,0,0-34.16,0,18.46,18.46,0,0,1-2.17,1.85,18.77,18.77,0,0,1-.11-2.14,22.59,22.59,0,0,0-22.56-22.55,18.66,18.66,0,0,1-2.12-.12,17.86,17.86,0,0,1,1.84-2.16,24.15,24.15,0,0,0,0-34.16,17.91,17.91,0,0,1-1.85-2.16,18.74,18.74,0,0,1,2.13-.12,22.59,22.59,0,0,0,22.56-22.56,18.84,18.84,0,0,1,.11-2.13,18.46,18.46,0,0,1,2.17,1.85,24.15,24.15,0,0,0,34.16,0A18.86,18.86,0,0,1,139.25,73Zm31.22,26.68a19.35,19.35,0,0,1,0,34.74,24.28,24.28,0,0,0-3.75-4.81,17.77,17.77,0,0,1,0-25.12A24.28,24.28,0,0,0,170.47,99.63Zm-33.09,67.83a19.37,19.37,0,0,1-34.76,0,24.28,24.28,0,0,0,4.81-3.74,17.78,17.78,0,0,1,25.13,0A24.28,24.28,0,0,0,137.38,167.46ZM69.53,134.37a19.35,19.35,0,0,1,0-34.74,24.43,24.43,0,0,0,3.74,4.81,17.76,17.76,0,0,1,0,25.12A24.74,24.74,0,0,0,69.53,134.37ZM120,181.47a22.59,22.59,0,0,0,20.23-12.57,24.18,24.18,0,0,0,31.68-31.67,22.55,22.55,0,0,0,0-40.45,24.18,24.18,0,0,0-31.68-31.67,22.49,22.49,0,0,0-40.45,0A24.19,24.19,0,0,0,68.09,96.78a22.55,22.55,0,0,0,0,40.44A24.18,24.18,0,0,0,99.77,168.9,22.59,22.59,0,0,0,120,181.47Zm22.23-18.68a22.47,22.47,0,0,0,.33-3.87,19.38,19.38,0,0,1,19.37-19.36,22.52,22.52,0,0,0,3.88-.33,17.78,17.78,0,0,1-23.57,23.57Zm23.57-68a22.52,22.52,0,0,0-3.87-.33,19.38,19.38,0,0,1-19.37-19.36,22.47,22.47,0,0,0-.34-3.87A17.78,17.78,0,0,1,165.8,94.78Zm-68-23.57a22.52,22.52,0,0,0-.33,3.88A19.39,19.39,0,0,1,78.07,94.45a22.42,22.42,0,0,0-3.87.33A17.78,17.78,0,0,1,97.77,71.21Zm-23.57,68a22.92,22.92,0,0,0,3.87.33,19.39,19.39,0,0,1,19.37,19.36,22.47,22.47,0,0,0,.33,3.88A17.78,17.78,0,0,1,74.2,139.23Z" fill="#ffe0cb" fill-rule="evenodd"/></svg>